<?xml version="1.0" encoding="utf-8"?>
<!-- Generator: Adobe Illustrator 19.0.0, SVG Export Plug-In . SVG Version: 6.00 Build 0)  -->
<svg version="1.1" id="Layer_1" xmlns="http://www.w3.org/2000/svg" xmlns:xlink="http://www.w3.org/1999/xlink" x="0px" y="0px"
	 width="655.6px" height="428.6px" viewBox="-1110.9 690.7 655.6 428.6" style="enable-background:new -1110.9 690.7 655.6 428.6;"
	 xml:space="preserve">
<style type="text/css">
	.st0{fill:#E20000;}
	.st1{fill:#FFFFFF;}
</style>
<path class="st0" d="M-615.9,1044.3c0,1.7,0,3.5,0,5.2c0,8,0,16,0.2,24c0.1,3-0.9,4.2-4,4.2c-11.2-0.1-22.3-0.1-33.5,0
	c-3.5,0-4.8-1.3-4.4-4.8c0.3-2.6,0.1-5.3-0.5-8c-16.9,23.8-39.3,33.7-67,25c-24.9-7.8-37.5-26.7-39.6-54.2c-1.6,2.4-2.7,3.8-3.5,5.2
	c-9.7,17-19.3,34.1-29,51.1c-0.7,1.2-2.3,2.7-3.5,2.7c-15.3,0.1-30.6,0-46-0.1c-0.3,0-0.6-0.3-1.6-0.8c3.5-8.2,7-16.4,11-26
	c-17.8,6.9-34.7,7.7-51.1-0.9c-16.3-8.5-26.1-22-29.7-40.1c-0.7-0.6-1.5-1.2-2.2-1.8c-0.3,1.3-0.4,2.7-1,3.8
	c-9.6,19.9-19.3,39.7-28.8,59.6c-1.9,4.1-4.3,6.1-9.1,5.8c-6.3-0.5-12.7-0.4-19,0c-4,0.2-5.9-1.5-6.9-4.9
	c-2.4-7.9-4.8-15.9-7.2-23.9c-4.1-14-8.2-28.1-12.2-42.1c-0.7-2.4-1.2-4.8-2.2-8.4c-1.5,1.7-2.8,2.7-3.4,4.1
	c-10.3,22.8-20.7,45.6-30.8,68.6c-2,4.6-4.3,7.3-9.9,6.7c-5.9-0.6-12-0.5-18,0c-4.6,0.4-6.3-1.8-7.2-5.6c-1.6-7.5-3.3-14.9-5-22.4
	c-3.5-15.7-7-31.5-10.5-47.2c-4-18.2-7.9-36.4-12-54.6c-2.4-10.9-4.9-21.7-7.5-33.2c1.2-0.2,2.8-0.5,4.3-0.5
	c14.2,0,28.3,0.1,42.5-0.1c3.7,0,5.1,1.2,5.9,4.9c3.5,16.4,7.3,32.8,11,49.1c0.5,2.2,1.3,4.4,2.3,8.1c3.8-6.9,7-12.5,10.2-18.2
	c7.4-13.4,14.6-26.9,22.2-40.1c1-1.8,4-3.5,6.1-3.6c8.3-0.4,16.7-0.1,25-0.2c3-0.1,4.5,0.8,5.3,3.8c4.1,15.6,8.4,31.1,12.6,46.7
	c1,3.7,1.8,7.4,2.8,11.1c0.3,1.1,1.2,2.1,2.2,3.8c7.4-12.8,14.3-24.9,21.2-36.9c4.6-8.1,9.2-16.2,13.8-24.3c1.6-2.8,3.4-4.3,7.1-4.3
	c12.5,0.3,25,0.1,37.5,0.1c1.6,0,3.2,0.2,5.8,0.3c-6,12.3-11.6,23.8-18,36.9c13.3-6.1,25.6-8.6,38.8-6.3
	c13.2,2.3,23.8,9.2,33.1,18.7c0.6-0.4,1.1-0.7,1.7-1.1c-2.9-12.5-5.1-25.3-9-37.4c-4.8-14.8-8.7-29.7-7.4-45.3
	c2-23.6,11.6-43.8,30-58.7c6.2-5.1,15.2-8.2,23.3-9.2c10.4-1.3,21.3-1,31.6,0.9c16.8,3.2,28,14.6,35.6,29.5c6.7,13,11,26.9,9.9,41.7
	c-0.6,8.4-2.7,16.7-3.9,25.1c-0.3,1.9,0.4,3.9,0.5,5.8c0,0.9,0,2-0.4,2.8c-4.5,8.9-8.9,17.9-13.8,26.6c-4.7,8.2-10,16-15,24
	c-0.5,0.8-0.8,1.7-1.5,3.3c33-15.3,59.6-7.9,80.5,21.9c0-10.5,0.1-19.9-0.2-29.3c0-1.1-2.5-2.8-4-2.9c-4.1-0.4-8.3-0.2-12.5-0.1
	c-2.8,0.1-4.3-0.7-4.3-3.9c0.1-9.7,0.1-19.3,0-29c0-2.7,1.1-4,3.9-3.9c3.8,0.1,7.7-0.2,11.5,0.1c3.9,0.3,5.2-1.3,5.5-5.1
	c1.6-16.7,9.2-29.8,24.7-37.2c12.9-6.2,26.7-7.9,40.9-7.2c3.4,0.2,4.5,1.9,4.5,5.2c-0.1,8.2-0.2,16.3,0,24.5c0.1,4-1.5,5.3-5.3,5.2
	c-6.7-0.2-12.2,2.8-17.2,7c-0.9,0.8-1.6,1.9-3.3,4.1c5.4,0,9.4,0.1,13.5,0c3.5-0.1,4.7,1.3,4.6,4.7c-0.2,8.8-0.1,17.6-0.1,26.9
	c1.6-0.3,2.8-0.2,3.6-0.8c13-8.8,27.5-12.4,42.9-13c9.6-0.3,19.3,0.3,28.9,0.8c5.6,0.3,6.9-0.9,7.7-6.4c2.1-14.3,4.2-28.6,6.6-42.9
	c0.2-1.3,2.2-3.2,3.4-3.2c15-0.2,30-0.1,45,0c0.6,0,1.2,0.5,1.6,0.6c-2.2,12.8-4.3,25.4-6.4,38c-2.6,15.6-5.2,31.2-7.8,46.8
	c-3.4,20.5-6.8,41-10.2,61.5c-0.5,3.3-1,6.6-1.4,9.9c-0.4,4-2.5,5.9-6.6,5.8c-5.2-0.1-10.4,0.3-15.5-0.1c-15.4-1.2-30.5,1-45.6,3.6
	c-15.1,2.6-30,0.5-44.4-3.8c-8.2-2.4-14.4-8.2-18.4-15.9c-1-1.8-2-3.7-3-5.5C-615,1044.2-615.4,1044.3-615.9,1044.3z M-781.4,972.7
	c1.8-2.5,2.7-3.8,3.6-5.1c7.2-11,14.5-21.9,21.5-33c1.9-2.9,4-4,7.4-3.9c9,0.2,18,0.1,27,0.1c8,0,8,0,10.3-7.8
	c5.6-19.3,5.3-38.2-3.1-56.9c-13.1-29.3-38.4-40.7-68.5-33.1c-6.2,1.6-12.9,3.8-17.6,7.8c-16.5,14.3-27.4,32.2-28.3,54.6
	c-0.4,9.9,1.3,19.8,2,29.7c0.3,4.2,2.4,5.8,6.5,5.7c8.3-0.1,16.7,0.2,25-0.1c4-0.1,5.8,1.4,6.5,5.1c0.9,4.9,1.9,9.8,2.9,14.7
	C-784.8,957.4-783.3,964.3-781.4,972.7z M-884,1016.3c-0.2,11.9,9.1,21.8,21.1,22.1c11.8,0.3,21.6-9.3,21.8-21.3
	c0.2-11.7-9.2-21.5-20.8-21.8C-873.9,995-883.8,1004.4-884,1016.3z M-707.8,1015.1c-12,0-21.4,9.5-21.4,21.5
	c0,11.9,9.2,21.1,21.1,21.2c12.1,0.1,21.6-9.2,21.6-21.2C-686.4,1024.6-695.9,1015.1-707.8,1015.1z M-563.6,1031.7
	c2-0.2,3.3-0.5,4.6-0.5c5.2,0,7.6-2.2,7.8-7.7c0.3-5.6,1.8-11.1,2.7-16.7c2.5-15.1,3.6-14.5-12.4-13.4
	c-13.4,0.9-22.3,11.5-21.3,23.6c0.6,6.6,4,12,8.9,13.2C-569.9,1031-566.4,1031.3-563.6,1031.7z M-615.6,997
	c5.9-8.7,11.5-17.1,17.4-25.9c-5,0-10-0.1-15,0.1c-0.8,0-2.2,1.3-2.3,2C-615.7,981.2-615.6,989-615.6,997z"/>
<path class="st0" d="M-831.3,690.7c1.3,4.6,2.9,9.1,4,13.7c2.7,10.9,5.1,21.9,7.8,32.9c2.6,10.6,5.3,21.2,7.9,31.8
	c3.5,14.1,6.9,28.3,10.3,42.5c0.4,1.8,0.9,3.6,0.9,5.4c0,1-1.2,2-1.9,2.9c-0.9-0.8-2.5-1.4-2.7-2.4c-2.5-9.6-4.7-19.3-7.1-29
	c-2.7-11.1-5.5-22.2-8.1-33.3c-3.3-13.7-6.5-27.4-9.8-41.1c-1-4.3-2.4-8.6-3.3-13c-0.6-3.2-0.6-6.6-0.9-9.9
	C-833.3,691.1-832.3,690.9-831.3,690.7z"/>
<path class="st0" d="M-692,838.4c-0.3-1.1-1-2.3-0.8-3.4c0.3-1.2,1.1-2.9,2.1-3.2c7.1-2.3,14.3-4.3,21.4-6.4c14-4.1,28-8.1,42-12.2
	c8.4-2.5,16.8-5.1,25.3-7.4c1.3-0.3,3,1,4.5,1.6c-1.1,1-2,2.6-3.2,3c-18,5.3-36,10.4-53.9,15.7c-11.3,3.3-22.5,6.8-33.8,10.2
	c-0.6,0.2-1.3,0.4-1.9,0.6C-690.9,837.4-691.4,837.9-692,838.4z"/>
<path class="st0" d="M-857.1,866.5c-1.4,0.3-3,1.3-4.1,0.9c-16.4-5.2-32.7-10.6-49.1-16c-8.3-2.7-16.7-5.4-25.1-8.1
	c-1.1-0.4-2.3-0.7-3.2-1.3c-1.2-1-2.2-2.3-3.3-3.4c1.7-0.3,3.5-1.3,5-0.9c10.3,3.1,20.5,6.5,30.7,9.8c15.1,4.9,30.2,9.9,45.3,14.9
	c1.4,0.5,2.6,1.5,3.9,2.2C-857,865.2-857.1,865.9-857.1,866.5z"/>
<path class="st0" d="M-840.4,836.5c-1-0.6-1.7-0.9-2.4-1.4c-7.6-5.3-15.2-10.6-22.7-16.1c-1.2-0.9-1.3-3.1-1.9-4.7
	c1.6,0.2,3.6-0.2,4.7,0.6c7.6,5.1,15,10.3,22.3,15.7c1,0.8,1.5,2.6,1.8,4C-838.3,835-839.6,835.8-840.4,836.5z"/>
<path class="st0" d="M-756.4,812.5c-0.7-1.4-2.2-3-2-4.2c1.8-9.6,3.9-19.2,6.1-28.7c0.3-1.1,1.6-1.9,2.4-2.9
	c0.8,1.2,2.3,2.5,2.2,3.7c-0.4,4.1-1.4,8.2-2.3,12.2c-1.4,6.4-2.9,12.9-4.4,19.3C-755,812.1-755.7,812.3-756.4,812.5z"/>
<path class="st0" d="M-663.6,876.4c2.3-0.1,4.7-0.4,7-0.3c0.9,0,1.8,0.9,2.7,1.4c-0.7,1-1.4,2-2.1,3c-0.1,0.1-0.3,0.1-0.5,0.1
	c-9.9,0.9-19.8,1.9-29.7,2.6c-0.8,0.1-1.7-1.5-2.6-2.3c0.8-0.8,1.5-2.3,2.4-2.4c7.6-1,15.2-1.7,22.7-2.5
	C-663.6,876.2-663.6,876.3-663.6,876.4z"/>
<path class="st1" d="M-781.4,972.7c-1.8-8.4-3.3-15.3-4.8-22.2c-1-4.9-2-9.8-2.9-14.7c-0.7-3.7-2.5-5.3-6.5-5.1
	c-8.3,0.3-16.7,0-25,0.1c-4.1,0.1-6.2-1.5-6.5-5.7c-0.7-9.9-2.4-19.8-2-29.7c0.9-22.4,11.7-40.3,28.3-54.6c4.7-4,11.4-6.3,17.6-7.8
	c30.1-7.6,55.4,3.8,68.5,33.1c8.4,18.7,8.6,37.6,3.1,56.9c-2.3,7.8-2.3,7.8-10.3,7.8c-9,0-18,0.1-27-0.1c-3.4-0.1-5.5,1-7.4,3.9
	c-7,11.1-14.3,22-21.5,33C-778.7,968.9-779.7,970.2-781.4,972.7z"/>
<path class="st1" d="M-884,1016.3c0.2-11.8,10.1-21.2,22.1-21c11.6,0.2,20.9,10,20.8,21.8c-0.2,12-10,21.6-21.8,21.3
	C-874.9,1038.1-884.3,1028.2-884,1016.3z"/>
<path class="st1" d="M-707.8,1015.1c12,0,21.5,9.5,21.4,21.5c0,12-9.6,21.4-21.6,21.2c-12-0.1-21.1-9.3-21.1-21.2
	C-729.3,1024.6-719.9,1015.1-707.8,1015.1z"/>
<path class="st1" d="M-563.6,1031.7c-2.8-0.4-6.4-0.7-9.7-1.5c-4.9-1.2-8.3-6.6-8.9-13.2c-1-12.1,7.9-22.6,21.3-23.6
	c16-1.1,15-1.7,12.4,13.4c-0.9,5.6-2.4,11.1-2.7,16.7c-0.3,5.5-2.6,7.8-7.8,7.7C-560.3,1031.2-561.6,1031.5-563.6,1031.7z"/>
<path class="st1" d="M-615.6,997c0-8-0.1-15.8,0.1-23.7c0-0.7,1.4-2,2.3-2c5-0.2,10.1-0.1,15-0.1
	C-604.1,979.9-609.8,988.3-615.6,997z"/>
<rect x="-526.7" y="953.9" transform="matrix(0.9898 0.1422 -0.1422 0.9898 138.6615 84.8315)" class="st1" width="5" height="117.6"/>
<rect x="-615.7" y="991.9" class="st1" width="1.8" height="119.4"/>
<rect x="-658.7" y="1006.6" class="st1" width="1.8" height="112.8"/>
<rect x="-761" y="972.4" transform="matrix(0.8654 0.5011 -0.5011 0.8654 413.2055 519.344)" class="st1" width="1.8" height="112.8"/>
<rect x="-910" y="950.2" transform="matrix(0.8951 0.4459 -0.4459 0.8951 353.432 510.9336)" class="st1" width="1.8" height="112.8"/>
</svg>
